<?xml version="1.0" standalone="no"?>
<!DOCTYPE svg PUBLIC "-//W3C//DTD SVG 20010904//EN"
 "http://www.w3.org/TR/2001/REC-SVG-20010904/DTD/svg10.dtd">
<svg version="1.0" xmlns="http://www.w3.org/2000/svg"
 width="100.000000pt" height="100.000000pt" viewBox="0 0 100.000000 100.000000"
 preserveAspectRatio="xMidYMid meet">
<metadata>
Created by potrace 1.11, written by Peter Selinger 2001-2013
</metadata>
<g transform="translate(0.000000,100.000000) scale(0.100000,-0.100000)"
fill="#000000" stroke="none">
<path d="M430 900 c-82 -25 -137 -56 -217 -121 -40 -33 -77 -59 -83 -59 -5 0
-10 -6 -10 -14 0 -8 -17 -28 -37 -45 -42 -35 -36 -42 8 -10 34 24 35 20 14
-66 -20 -84 -18 -88 14 -26 26 51 29 53 39 34 6 -11 18 -23 26 -26 12 -5 13
-1 6 19 -6 14 -13 48 -16 75 -6 46 -4 51 27 81 138 129 334 159 495 74 57 -30
70 -40 107 -84 30 -37 34 -75 13 -134 -15 -40 -4 -51 16 -18 18 29 25 25 52
-27 29 -56 32 -49 11 32 -19 72 -16 82 14 56 47 -41 46 -20 -1 29 -26 28 -50
50 -52 50 -2 0 -29 24 -60 54 -85 83 -188 135 -281 141 -16 1 -55 -6 -85 -15z"/>
<path d="M133 773 c-18 -6 -16 -30 2 -37 9 -3 18 1 22 10 7 18 -7 33 -24 27z"/>
<path d="M836 765 c-5 -15 17 -39 27 -28 12 11 8 31 -7 36 -8 3 -17 0 -20 -8z"/>
<path d="M421 700 c-13 -10 -8 -159 6 -164 10 -4 12 5 9 37 -4 39 -3 41 11 22
15 -19 15 -19 10 5 -3 14 1 41 8 60 13 33 14 31 12 -46 -2 -68 0 -80 13 -77
12 3 15 19 13 81 -2 52 0 71 7 57 8 -19 9 -19 9 -1 1 11 4 16 7 13 4 -4 6 -40
5 -80 -2 -57 1 -74 12 -74 11 0 13 17 11 81 -2 72 -1 79 12 62 14 -20 14 -20
15 0 0 10 6 -3 13 -30 8 -27 12 -63 10 -81 -2 -22 2 -32 11 -32 10 0 14 14 14
46 -1 25 4 59 10 74 14 35 14 47 1 47 -5 0 -10 -13 -10 -30 0 -16 -4 -30 -10
-30 -5 0 -10 14 -10 30 0 22 -5 30 -17 31 -76 4 -166 3 -172 -1z m31 -37 c-6
-3 -10 -9 -7 -13 3 -5 1 -11 -3 -14 -5 -3 -8 7 -6 22 3 38 3 37 17 23 10 -11
9 -14 -1 -18z"/>
<path d="M254 660 c-8 -37 -7 -46 5 -52 14 -6 13 -7 -1 -7 -22 -1 -24 -21 -3
-21 8 0 15 -9 15 -20 0 -21 3 -22 45 -22 48 0 55 2 55 21 0 11 9 21 21 24 12
3 18 10 14 16 -12 20 -32 11 -45 -19 -21 -51 -32 -34 -28 45 2 62 0 75 -12 75
-12 0 -14 -13 -12 -75 2 -49 0 -75 -7 -75 -6 0 -11 12 -12 28 0 15 -6 50 -13
77 l-12 50 -10 -45z"/>
<path d="M678 690 c-4 -8 -11 -40 -16 -70 -6 -30 -12 -60 -14 -66 -1 -7 2 -12
7 -13 6 0 9 9 7 19 -2 13 2 20 14 20 11 0 15 -6 11 -20 -3 -11 0 -20 6 -21 7
0 20 -2 30 -4 10 -2 17 3 17 12 0 9 -6 13 -14 10 -11 -4 -18 13 -28 71 -8 42
-17 70 -20 62z"/>
<path d="M725 635 c0 -36 4 -65 8 -65 5 0 6 16 3 35 -9 53 8 42 23 -15 7 -27
16 -50 19 -50 10 0 8 62 -1 78 -5 7 -3 12 5 12 9 1 7 4 -3 10 -9 5 -20 21 -23
35 -4 14 -12 25 -19 25 -8 0 -12 -20 -12 -65z"/>
<path d="M770 681 c0 -11 4 -22 9 -25 5 -3 9 6 9 19 0 14 -4 25 -9 25 -5 0 -9
-9 -9 -19z"/>
<path d="M230 550 c0 -11 4 -20 9 -20 6 0 9 9 8 20 -1 11 -5 20 -9 20 -4 0 -8
-9 -8 -20z"/>
<path d="M61 403 c-11 -38 -6 -57 8 -34 7 10 9 10 14 -2 5 -13 13 -14 46 -8 2
1 -2 8 -9 16 -7 8 -10 21 -7 28 3 8 1 20 -4 28 -6 10 -9 4 -10 -21 -1 -19 -3
-27 -6 -17 -3 10 -9 14 -16 10 -8 -4 -7 -1 1 9 8 10 9 18 3 22 -5 4 -15 -10
-20 -31z"/>
<path d="M150 413 c0 -14 -4 -21 -10 -18 -5 3 -10 1 -10 -4 0 -6 5 -11 11 -11
5 0 8 -4 4 -9 -3 -5 -1 -12 5 -16 5 -3 10 3 10 14 0 26 17 28 23 4 3 -12 5 -8
6 9 0 15 6 30 12 34 8 5 10 -3 7 -25 -2 -17 -1 -31 4 -31 4 0 8 14 8 31 0 40
20 27 21 -14 1 -31 2 -30 15 12 8 25 12 47 9 49 -3 3 -5 0 -5 -7 0 -7 -5 -9
-11 -5 -7 4 -31 8 -55 9 -40 2 -44 0 -44 -22z m30 -3 c0 -5 -4 -10 -10 -10 -5
0 -10 5 -10 10 0 6 5 10 10 10 6 0 10 -4 10 -10z"/>
<path d="M286 425 c-4 -11 -12 -30 -17 -42 -5 -15 -5 -23 1 -23 6 0 10 6 10
13 1 8 5 7 13 -4 7 -9 18 -14 25 -11 11 3 10 7 -1 21 -9 9 -17 27 -19 41 -4
23 -5 23 -12 5z"/>
<path d="M341 423 c-6 -10 -11 -12 -11 -5 0 6 -4 12 -9 12 -13 0 -4 -44 9 -48
5 -2 10 -11 10 -19 0 -34 13 -1 15 37 2 45 0 48 -14 23z"/>
<path d="M383 432 c-9 -6 -10 -39 -3 -82 0 -3 4 1 9 9 8 12 12 12 24 2 13 -10
19 -8 36 10 l21 23 0 -25 c0 -17 3 -20 9 -10 6 10 10 10 16 1 9 -15 55 26 55
49 0 13 2 14 9 2 11 -17 3 -43 -10 -35 -5 3 -9 1 -9 -5 0 -15 18 -23 25 -11 5
8 11 8 20 0 9 -7 15 -7 19 -1 4 5 -2 14 -11 20 -10 6 -13 11 -8 11 13 0 17 40
4 40 -5 0 -9 -5 -9 -12 0 -6 -6 -3 -14 7 -13 18 -13 18 -24 -1 -10 -18 -11
-18 -17 -2 -5 13 -11 15 -25 8 -9 -5 -20 -6 -24 -3 -3 3 -6 1 -6 -5 0 -7 -5
-12 -11 -12 -5 0 -7 5 -4 10 3 6 -1 10 -9 10 -9 0 -19 1 -23 1 -5 1 -14 -9
-21 -22 l-14 -24 6 28 c7 29 6 30 -11 19z m57 -37 c0 -14 -4 -25 -9 -25 -12 0
-19 21 -13 38 8 21 22 13 22 -13z m80 -7 c0 -5 -4 -8 -10 -8 -5 0 -10 10 -10
23 0 18 2 19 10 7 5 -8 10 -18 10 -22z"/>
<path d="M630 425 c-1 -11 -3 -30 -4 -43 -2 -13 1 -25 6 -28 4 -3 8 -1 8 5 0
7 8 7 25 1 16 -6 26 -6 31 1 4 8 9 7 14 -2 7 -10 12 -10 26 2 13 11 18 11 21
1 3 -6 10 -9 16 -5 7 4 18 8 26 8 8 0 19 13 24 29 11 34 -5 49 -40 35 -12 -5
-23 -6 -23 -3 0 4 -7 1 -15 -6 -13 -11 -14 -10 -9 4 5 12 2 15 -10 10 -11 -4
-15 -13 -11 -23 16 -40 14 -43 -5 -6 l-21 40 4 -33 c2 -18 0 -35 -5 -38 -4 -3
-8 9 -8 27 0 26 -3 30 -20 26 -10 -3 -21 0 -24 7 -2 6 -5 2 -6 -9z m40 -32 c0
-19 -3 -24 -10 -17 -6 6 -8 18 -4 27 9 24 14 21 14 -10z m107 7 c-1 -22 -17
-28 -17 -7 0 12 9 27 16 27 2 0 2 -9 1 -20z m34 6 c-4 -6 -11 -18 -14 -26 -3
-8 -5 -3 -4 11 1 14 7 26 14 26 8 0 9 -5 4 -11z"/>
<path d="M844 424 c-3 -10 -10 -30 -15 -43 -12 -29 -1 -43 13 -17 8 15 12 16
20 5 6 -9 7 0 3 25 -7 47 -12 56 -21 30z"/>
<path d="M900 432 c0 -6 -7 -9 -15 -6 -12 5 -14 2 -7 -17 5 -13 7 -29 5 -36
-2 -6 0 -14 5 -17 9 -5 25 74 16 83 -2 2 -4 -1 -4 -7z"/>
<path d="M927 433 c-5 -7 -5 -17 -2 -23 3 -5 2 -10 -2 -10 -5 0 -9 -9 -10 -21
-2 -16 1 -18 12 -9 10 9 14 7 17 -7 2 -10 6 -13 9 -8 10 15 -15 92 -24 78z"/>
<path d="M40 285 c0 -31 3 -35 28 -35 21 0 24 -2 12 -10 -13 -8 -13 -10 1 -10
11 0 16 10 17 35 1 21 -3 33 -8 30 -6 -3 -10 -13 -10 -21 0 -8 -4 -14 -10 -14
-5 0 -10 14 -10 30 0 17 -4 30 -10 30 -5 0 -10 -16 -10 -35z"/>
<path d="M110 284 c0 -41 10 -41 14 0 2 15 -1 29 -5 32 -5 3 -9 -12 -9 -32z"/>
<path d="M320 301 c-9 -18 -8 -21 10 -21 11 0 20 -5 20 -10 0 -16 -51 -3 -66
17 -12 16 -15 16 -24 3 -12 -19 -12 -21 5 -44 12 -15 17 -17 29 -7 8 7 20 11
28 10 51 -6 60 8 29 47 -20 25 -20 25 -31 5z"/>
<path d="M415 310 c-3 -5 -1 -10 4 -10 6 0 11 5 11 10 0 6 -2 10 -4 10 -3 0
-8 -4 -11 -10z"/>
<path d="M460 289 c0 -24 6 -38 21 -48 13 -8 24 -9 28 -3 3 5 30 10 59 10 28
0 59 1 67 1 11 1 15 12 14 39 -1 20 -3 28 -6 17 -9 -44 -16 -51 -22 -25 -4 14
-13 25 -21 25 -8 0 -20 -11 -27 -25 -11 -22 -18 -21 -14 3 0 4 -3 7 -9 7 -5 0
-10 -8 -10 -17 0 -15 -4 -13 -20 7 l-20 25 0 -23 c0 -14 -5 -22 -12 -19 -7 2
-13 13 -13 25 0 11 -3 24 -7 28 -5 4 -8 -8 -8 -27z m150 -3 c0 -3 -4 -8 -10
-11 -5 -3 -10 -1 -10 4 0 6 5 11 10 11 6 0 10 -2 10 -4z"/>
<path d="M526 308 c3 -4 9 -8 15 -8 5 0 9 4 9 8 0 5 -7 9 -15 9 -8 0 -12 -4
-9 -9z"/>
<path d="M660 287 c0 -20 4 -37 9 -37 9 0 7 57 -3 67 -3 4 -6 -10 -6 -30z"/>
<path d="M709 293 c-5 -14 -8 -33 -7 -42 4 -18 38 -28 38 -12 0 6 -8 11 -17
11 -12 0 -14 3 -7 10 7 7 20 6 40 -5 18 -9 41 -13 62 -9 22 4 32 2 32 -6 0 -9
4 -9 13 -2 7 6 29 8 49 6 42 -6 58 10 34 34 -16 16 -18 16 -31 -2 -14 -18 -15
-18 -34 5 -16 19 -22 22 -32 12 -11 -11 -10 -13 4 -13 9 0 17 -4 17 -10 0 -15
-36 -12 -50 5 -15 19 -25 19 -42 1 -12 -11 -17 -11 -34 1 -13 11 -15 17 -6 20
6 3 10 9 6 14 -10 17 -24 9 -35 -18z m101 -27 c0 -3 -4 -8 -10 -11 -5 -3 -10
-1 -10 4 0 6 5 11 10 11 6 0 10 -2 10 -4z m130 -6 c0 -5 -2 -10 -4 -10 -3 0
-8 5 -11 10 -3 6 -1 10 4 10 6 0 11 -4 11 -10z"/>
<path d="M147 290 c-13 -38 -15 -61 -4 -57 7 2 11 12 11 21 -2 21 8 20 25 -3
11 -15 17 -16 37 -7 24 12 38 42 23 52 -5 3 -9 -5 -9 -18 l-1 -23 -19 24 c-16
18 -23 21 -34 12 -11 -9 -15 -9 -19 1 -3 10 -6 9 -10 -2z"/>
<path d="M390 277 c0 -14 7 -30 15 -37 24 -20 45 -4 45 32 0 23 -3 29 -9 19
-5 -8 -7 -20 -4 -28 3 -7 -2 -13 -11 -13 -9 0 -16 8 -16 19 0 11 -4 23 -10 26
-6 3 -10 -4 -10 -18z"/>
<path d="M47 203 c-2 -5 -4 -35 -3 -68 l1 -60 440 -1 c242 -1 448 0 458 3 14
4 17 16 17 69 l0 64 -454 0 c-250 0 -457 -3 -459 -7z"/>
</g>
</svg>
